<?xml version="1.0" encoding="utf-8"?>
<svg viewBox="0 0 500 500" width="500" height="500" xmlns="http://www.w3.org/2000/svg">
  <path d="M 90.071 -1.188 C 91.379 12.545 96.594 26.623 104.963 37.634 C 120.724 58.372 149.748 78.91 176.127 81.977 C 220.288 87.111 269.95 64.115 313.268 77.976 C 349.405 89.539 344.206 118.811 355.759 147.694 C 371.384 186.761 404.926 201.749 443.482 192.111 C 458.216 188.427 472.49 183.526 486.602 177.922 C 504.793 170.7 525.34 162.323 540.984 150.472 C 537.029 151.076 544.462 135.078 545.393 133.432 C 554.804 116.781 564.921 97.675 577.918 83.496 C 574.658 80.228 580.682 65.152 581.808 60.75 C 586.46 42.566 583.696 24.767 591.959 7.554 C 595.963 -0.787 602.168 -9.12 610.37 -2.559" style="stroke: none; stroke-width: 2px; paint-order: stroke; fill: rgb(30, 65, 19);"/>
  <path d="M 77.54932542784564 -10.22720503166029 C 74.2569274260849 3.6010175722790887 88.78168446315968 25.938024177670165 96.96100616455078 36.52311325073242 C 121.35914320535322 68.09742506068976 139.48622967433317 108.1139035184326 187.20303344726562 83.53274536132812 C 204.51966731295445 74.61213706101637 231.75714372197749 32.091070813710346 254.18072509765625 43.302284240722656 C 278.65025153926314 55.536417530970624 264.1381075482702 81.28795724137882 260.5895080566406 99.53601837158203 C 256.51153060619583 120.5063143936711 259.5494174647859 142.55880637296008 271.5919494628906 160.6226043701172 C 297.9255241262409 200.12296636514253 340.14818607413036 158.24584404915072 371.2434387207031 150.47235107421875 C 385.94483023452136 146.79715457547005 400.84245768752567 153.059823571956 415.9940490722656 148.69422912597656 C 428.6475950480654 145.04839096738334 439.9987563307652 138.00690511642063 449.70513916015625 129.1717071533203 C 466.9768692178048 113.45018071996321 484.54703596857456 95.26955336873056 503.9762878417969 82.42140197753906" style="stroke: none; fill: rgb(89, 183, 63); stroke-width: 2px; paint-order: stroke;"/>
  <path d="M 69.362 -8.19 C 70.631 -14.955 72.126 3.336 73.03 6.295 C 76.468 17.545 79.685 28.857 83.847 39.857 C 94.301 67.487 129.223 88.054 156.344 95.054 C 184.466 102.311 219.109 81.546 243.882 99.24 C 249.822 103.482 249.391 110.796 251.995 116.873 C 255.872 125.921 262.743 133.686 266.739 142.767 C 272.1 154.951 271.857 172.709 286.373 178.515 C 306.983 186.758 336.16 166.042 354.092 158.622 C 375.162 149.904 400.296 155.436 422.106 148.62 C 450.773 139.662 474.943 117.697 498.901 100.425 C 496.232 99.109 517.152 65.037 520.498 60.306 C 522.456 57.538 526.582 48.974 530.278 50.822" style="stroke: none; fill: rgb(30, 65, 19); stroke-width: 2px; paint-order: stroke;"/>
  <path d="M 109.07478418390303 63.82499347133379 C 119.96067818113588 83.48987861352026 154.40508358690562 95.33026002873343 175.27450561523438 96.16494750976562 C 188.7215013326323 96.70276973443336 206.12319020640697 94.81866247657094 217.6171112060547 103.31456756591797 C 229.9118741374705 112.40242704959917 229.89058770092865 125.86344802383005 235.54696655273438 138.84036254882812 C 242.91947876999316 155.7544454602528 255.92738051539732 174.2887273108512 270.8880920410156 185.33135986328125 C 316.2886073227261 218.84187887091213 368.6388382255956 151.30812324402828 387.28399658203125 118.7992172241211 C 392.90635464244 108.99631256104497 400.8741329222783 99.38753027898487 403.2875061035156 88.12628173828125" style="stroke: none; fill: rgb(30, 65, 19); stroke-width: 2px; paint-order: stroke;"/>
  <path d="M 431.3307149782772 -7.44885824110575 C 431.0016797289008 -0.9784063065138229 440.316937193555 8.061248127124097 442.4072265625 14.592696189880371 C 450.4815249223314 39.822150620418924 458.68289460948586 79.6364507227863 443.963134765625 103.35160064697266 C 417.3911589252475 146.16197238678262 321.9299562216136 130.5697261682849 334.8651123046875 201.70509338378906 C 339.72986861764025 228.45824769544535 378.4146983174652 230.8349335525915 398.3234558105469 233.4893798828125 C 421.38392656830837 236.56404599381315 444.2258571114665 250.60955650405558 458.8552551269531 268.16314697265625 C 473.0346701138575 285.1768097017018 478.5371957184109 307.5804087379119 489.8250427246094 326.2491149902344 C 499.7064537015313 342.5917495763809 513.6657838291746 352.748099337252 527.3887939453125 365.44232177734375 C 528.8869556891452 366.82816921653523 553.6714677533 389.1703291217 553.7650146484375 389.0767822265625 C 557.5723513687685 385.2694455062315 553.799236404156 371.22278479906487 553.7279663085938 366.5906982421875 C 553.3730603647476 343.5241506463484 552.9044292399518 320.45538750359384 552.6165771484375 297.391357421875 C 552.0824849333625 254.59743902406183 546.6615909100982 212.20982207444789 553.7650146484375 169.58741760253906 C 562.3239292959296 118.23168614349532 590.3192982109055 71.43072279552224 563.2855834960938 18.59351921081543 C 543.331627868751 -20.40634547387254 502.18155229366516 -2.7996397130695874 467.6719970703125 -7.3006744384765625 C 460.3804163727122 -8.251705470623769 433.9674136920737 -15.828751840387904 428.1818542480469 -8.115665435791016 C 426.14324346306046 -5.397867566446283 440.24966743108035 4.133076596784146 441.4811096191406 5.257445335388184" style="stroke: none; stroke-width: 2px; paint-order: stroke; fill: rgb(89, 183, 63);"/>
  <path d="M 63.10171155206461 -11.412625733661297 C 63.10171127319336 32.88832184983665 93.91944681414145 90.58438979911796 137.89590454101562 103.31456756591797 C 160.54961664004173 109.87229861123308 191.08535051572164 102.0757282934902 211.1712646484375 115.13182067871094 C 239.61854657505296 133.6229054502703 237.89462250392415 181.28418110681153 270.6287536621094 198.74148559570312 C 317.59572590390616 223.78924786512704 338.1561220008413 157.87318388177945 358.314697265625 133.0614013671875 C 367.20015491718846 122.12491206189652 381.2710843118295 115.12028652627168 389.1362609863281 103.9443359375 C 396.7049101036571 93.1897334587946 401.7367648275095 79.24642738217703 404.39886474609375 66.38107299804688 C 406.40306710625424 56.69519552929775 407.28839111328125 46.81062457286522 407.28839111328125 36.930606842041016 C 407.28839111328125 30.967797179379875 407.86300078066733 24.17441751792414 406.2510986328125 18.371244430541992 C 398.8345648711779 -8.329774104892948 396.94505692210646 -7.119891017304386 371.16937255859375 -7.856343746185303 C 365.0459641621317 -8.031299365598862 358.95626972555135 -7.776719054909531 352.83197021484375 -7.67112398147583 C 338.04474470165707 -7.416162877562536 323.3336321974378 -7.547768824153235 308.5630187988281 -6.411601543426514 C 290.67533883896186 -5.035667034137676 273.20897647997094 -11.66991987930802 255.2550048828125 -11.375589370727539 C 225.98115185221815 -10.895685077464162 197.22966468241503 -2.6080424093085317 167.82839965820312 -3.040539503097534 C 143.51194417234316 -3.398238272868954 120.53738148092225 -9.815647636965819 96.55351257324219 -11.708992958068848 C 87.40778854203138 -12.430978800688576 60.102991177345864 -9.49186126883891 61.58285903930664 -13.746445655822754" style="stroke: none; stroke-width: 2px; paint-order: stroke; fill: rgb(49, 71, 27);"/>
  <path d="M 292.30017873298146 200.11216008274963 C 327.32017958081866 213.73070345790384 335.0751869092784 166.22061113633572 352.6467590332031 151.84303283691406 C 374.71398739977826 133.78697607352035 408.4395421597807 129.85347117615817 427.7743835449219 105.68541717529297 C 436.6847911220843 94.54763708157712 431.30459247271574 71.55969467412254 427.9225158691406 59.046234130859375 C 421.1013597933472 33.808406187029846 423.8336783475773 9.274853242952272 399.5089416503906 -7.930435657501221 C 393.88181557411633 -11.910595074099223 387.41535993829467 -12.29203387544345 381.2086181640625 -14.894821166992188" style="stroke: none; fill: rgb(30, 65, 19); stroke-width: 2px; paint-order: stroke;"/>
  <path d="M 270.8510334724819 194.40728272471233 C 274.6878310220322 197.18285876617878 281.66171095119495 200.50267372176552 286.29888916015625 201.59393310546875 C 295.77394641061755 203.82368246375515 305.29664616304945 208.3029047569169 314.934814453125 203.11279296875 C 324.8801607489356 197.7572671578509 329.2287686652718 183.00548450409107 335.1614685058594 174.10684204101562 C 343.02189214654237 162.31674622187225 354.80920403429855 149.44056629745708 367.3907470703125 142.73004150390625 C 403.9144981813933 123.24963781392783 461.0175920281533 126.9236431560465 463.48590087890625 72.60457611083984 C 463.92391317674395 62.96541796188625 462.94862090186683 53.647698774693026 461.1891174316406 44.191341400146484 C 458.8925113292922 31.848354631510347 454.29952900729086 20.504458302166263 445.4449157714844 11.29572582244873 C 436.87863620880046 2.386858236879579 428.95585536693613 -3.555501748527184 417.6240234375 -8.412013053894043 C 414.1109055185485 -9.917638710603168 404.2887433865513 -10.812436392992492 403.102294921875 -11.783075332641602" style="stroke: none; fill: rgb(49, 71, 27); stroke-width: 2px; paint-order: stroke;"/>
  <path d="M 400.28684335141253 -0.5956036496282877 C 409.06434699090613 -9.781168758966235 389.8938596329813 25.87559800734153 387.8396911621094 30.48484230041504 C 385.2487232768036 36.298583533534675 382.7931991689141 42.14078260985221 379.9861145019531 47.8587760925293 C 372.20596267374555 63.706840089862 350.7673400963958 119.96506507780111 323.6404113769531 98.98033905029297 C 313.9946338536946 91.51860238480751 316.5602291255087 72.5376966143872 319.3431701660156 62.56547927856445 C 326.81849608543286 35.77886265985235 347.2901031825303 9.722287837365052 374.46636962890625 0.6639163494110107 C 381.75263802795365 -1.764736830367967 392.1041195933362 -8.270839406225747 399.95343017578125 -7.485894203186035 C 402.2490973954636 -7.256323344326753 409.5447930497815 -4.885400932487733 407.7699890136719 -1.336495280265808" style="stroke: none; fill: rgb(49, 71, 27); stroke-width: 2px; paint-order: stroke;"/>
  <path d="M 367.98346967265275 -8.300885250388138 C 359.8106760202929 -4.275528898070156 367.50006369533065 1.1608624648718515 373.35504150390625 2.4050164222717285 C 380.556206579685 3.9352285460132492 388.1063730341709 2.0830652676764725 393.5816955566406 -2.8553318977355957 C 395.15508090877114 -4.274426705607708 399.9605047439027 -9.767481011114672 397.6566467285156 -12.301708221435547 C 393.6190056953287 -16.743084253930036 380.1449827463623 -13.435800451171023 375.17022705078125 -12.857368469238281 C 358.30479051560013 -10.896366064663665 343.38122407033643 -13.917985815992596 325.9001770019531 -10.301297187805176 C 321.14688024707493 -9.317878159613171 303.9767424883088 -11.776502078041142 306.15509033203125 -2.3366987705230713 C 308.0392242827918 5.828137690949852 322.30358498054676 7.172871361189294 328.6415100097656 7.776480197906494 C 349.42706807007204 9.756047085090973 378.42144121321417 5.754436268911622 395.1746520996094 -8.041573524475098" style="stroke: none; fill: rgb(49, 71, 27); stroke-width: 2px; paint-order: stroke;"/>
  <path d="M 422.6991826756573 122.61481750107885 C 399.23864086589214 129.6529145462937 367.93803055481214 139.86921826577714 349.16455078125 157.14041137695312 C 332.0922479813692 172.84655866907357 325.94315104782186 198.90505716651876 304.2657775878906 209.74374389648438 C 269.740858730498 227.00620332518068 251.92578774896714 179.75065131142907 246.84576416015625 157.39971923828125 C 243.34389777416658 141.9923148524257 238.93916883137803 126.87467696647956 235.69517517089844 111.46437072753906" style="stroke: none; fill: rgb(49, 71, 27); stroke-width: 2px; paint-order: stroke;"/>
  <path d="M 278.4823356885078 207.0765599339369 C 324.73968672688716 229.4818091241822 336.1870806761806 170.84205648042766 346.57135009765625 140.98895263671875 C 349.3418248451643 133.02428348409785 354.47769329616824 125.9827590410807 357.9072265625 118.31765747070312" style="stroke: none; fill: rgb(49, 71, 27); stroke-width: 2px; paint-order: stroke;"/>
  <path d="M 331.9385466396173 167.2165499268797 C 343.0244581625785 161.15389310326157 351.984156960747 149.45595273676037 363.8714294433594 144.80455017089844 C 396.23362195028096 132.141461520092 428.9677472548676 135.30143196210506 457.4845886230469 110.46419525146484 C 477.70752288005906 92.85068053431245 469.16733266166744 43.58976226211753 446.85260009765625 30.633010864257812 C 433.66214196959686 22.974147541612524 416.49688487791065 23.44432724260491 402.02801513671875 20.63096809387207" style="stroke: none; fill: rgb(49, 71, 27); stroke-width: 2px; paint-order: stroke;"/>
  <path d="M 463.7452363363028 57.342190895163135 C 457.941602050022 41.787969687312454 460.64150569110296 24.443654317548067 446.4081115722656 9.480534553527832 C 438.16579875517914 0.8156502128798842 415.86308923510336 -0.9905987657158057 411.65972900390625 -11.079221725463867" style="stroke: none; fill: rgb(49, 71, 27); stroke-width: 2px; paint-order: stroke;"/>
  <path d="M 412.4006332376472 -5.967069985248358 C 429.33999190459593 -16.17686666688211 446.9503765131157 -1.1173515165153987 453.7430419921875 13.70362377166748 C 466.8927756656452 42.395140882434205 464.39617625493304 67.6946838658152 447.2972106933594 93.7940902709961" style="stroke: none; fill: rgb(49, 71, 27); stroke-width: 2px; paint-order: stroke;"/>
  <path d="M 465.89388021160545 74.16044551273367 C 472.3832594003058 56.43897868836412 461.13682003891677 11.994184187742375 446.4081115722656 0.07120106369256973 C 437.85477217743306 -6.852781544135256 430.514041509107 -9.21936877845261 420.25421142578125 -12.746234893798828 C 419.4717657670918 -13.015204365838756 412.0668037727209 -16.70936609522186 411.88201904296875 -16.339563369750977" style="stroke: none; fill: rgb(49, 71, 27); stroke-width: 2px; paint-order: stroke;"/>
  <path d="M 240.104 -13.006 C 257.639 17.118 284.015 52.368 323.307 48.303 C 352.04 45.331 369.333 32.007 398.583 45.006 C 420.623 54.801 425.376 77.799 439.925 94.646 C 455.788 113.013 476.046 120.668 498.531 128.579 C 526.631 138.466 554.907 133.953 581.808 123.763 C 588.258 121.32 602.916 119.902 605.591 112.946 C 602.616 112.57 614.501 95.355 615.593 92.942 C 622.536 77.61 630.086 62.416 636.153 46.71 C 641.051 34.033 646.389 21.596 651.527 9.036 C 652.192 7.412 660.822 -10.157 661.048 -9.931" style="stroke: none; stroke-width: 2px; paint-order: stroke; fill: rgb(230, 255, 207);"/>
  <path style="stroke: none; fill: rgb(49, 71, 27); stroke-width: 2px; paint-order: stroke;" d="M 286.382 205.015 C 295.58 205.015 304.199 207.858 313.166 204.719 C 332.798 197.847 343.122 166.711 357.324 152.967 C 370.076 140.626 387.414 134.55 402.371 125.703 C 389.713 107.861 363.51 91.376 341.135 93.474"/>
</svg>