<?xml version="1.0" encoding="utf-8"?>
<svg viewBox="0 0 500 500" width="500" height="500" xmlns="http://www.w3.org/2000/svg">
  <path d="M 90.071 -1.188 C 91.379 12.545 96.594 26.623 104.963 37.634 C 120.724 58.372 149.748 78.91 176.127 81.977 C 220.288 87.111 269.95 64.115 313.268 77.976 C 349.405 89.539 344.206 118.811 355.759 147.694 C 371.384 186.761 404.926 201.749 443.482 192.111 C 458.216 188.427 472.49 183.526 486.602 177.922 C 504.793 170.7 525.34 162.323 540.984 150.472 C 537.029 151.076 544.462 135.078 545.393 133.432 C 554.804 116.781 564.921 97.675 577.918 83.496 C 574.658 80.228 580.682 65.152 581.808 60.75 C 586.46 42.566 583.696 24.767 591.959 7.554 C 595.963 -0.787 602.168 -9.12 610.37 -2.559" style="stroke: none; stroke-width: 2px; paint-order: stroke; fill: rgb(30, 65, 19);"/>
</svg>