<?xml version="1.0" encoding="utf-8"?>
<svg viewBox="0 0 500 500" width="500" height="500" xmlns="http://www.w3.org/2000/svg">
  <circle style="fill: rgb(14, 59, 18);" cx="72.41" cy="-6.384" r="7.509"/>
  <path stroke-width="0" d="M 540.802 397.586 C 542.976 399.596 544.082 401.796 544.929 404.602 C 545.538 406.619 546.033 409.171 546.117 411.708 C 547.103 415.104 547.677 418.663 547.363 421.283 C 546.809 425.915 544.088 430.336 540.347 433.252 C 536.101 436.562 530.493 439.055 522.188 439.03 C 509.383 438.991 484.818 433.156 467.712 424.998 C 449.928 416.516 422.53 392.873 417.775 388.267 C 416.478 387.011 417.534 387.375 416.536 386.204 C 413.829 383.025 402.354 373.878 395.489 365.981 C 387.875 357.223 380.091 346.443 373.203 335.441 C 366.011 323.956 358.007 309.63 353.393 298.298 C 349.504 288.749 347.323 280.584 345.964 271.885 C 344.659 263.534 344.207 257.065 345.139 247.123 C 345.988 238.061 348.345 225.356 351.157 213.676 C 350.941 213.544 350.728 213.412 350.519 213.279 C 346.503 216.932 342.612 220.353 338.956 223.354 C 323.118 236.353 309.697 246.661 294.384 256.37 C 285.759 261.839 275.708 267.636 266.445 272.483 C 266.276 272.649 266.108 272.811 265.94 272.97 C 259.792 278.796 253.514 282.729 246.13 285.351 C 238.446 288.081 229.673 288.676 220.542 288.653 C 210.534 288.628 198.179 288.3 188.351 284.526 C 178.503 280.744 167.397 272.792 161.526 265.954 C 156.703 260.338 155.102 255.47 153.272 247.795 C 150.902 237.858 149.085 221.538 150.795 209.827 C 152.209 200.148 158.897 189.598 161.521 182.176 C 160.545 175.341 159.634 168.289 158.454 161.795 C 155.156 157.175 150.637 152.234 147.081 149.159 C 142.392 145.104 136.82 142.155 132.224 140.905 C 128.4 139.866 124.299 140.691 121.493 140.905 C 119.423 141.063 119.051 141.961 116.541 141.731 C 111.845 141.299 100.46 138.845 93.43 135.127 C 86.264 131.338 79.842 125.62 74.033 119.032 C 67.767 111.926 60.954 102.528 57.524 93.444 C 55.994 89.392 54.783 84.73 54.02 80.146 C 53.939 79.873 53.858 79.598 53.778 79.32 C 51.109 70.042 50.24 56.126 50.476 45.478 C 50.696 35.576 51.204 25.901 54.603 17.415 C 57.976 8.993 64.978 0.609 70.699 -5.284 C 75.659 -10.394 79.818 -13.121 86.381 -16.84 C 94.512 -21.446 106.325 -26.225 116.921 -30.046 C 127.766 -33.957 140.135 -37.744 150.763 -39.951 C 160.376 -41.947 171.054 -43.024 178.002 -43.253 C 182.923 -43.415 186.237 -43.566 189.557 -42.427 C 192.625 -41.376 195.372 -40.068 197.399 -37.062 C 198.378 -35.61 199.453 -33.534 200.368 -31.209 C 202.453 -31.444 204.579 -31.389 206.796 -30.925 C 211.479 -29.947 215.894 -24.156 221.654 -23.497 C 228.287 -22.738 239.406 -28.585 244.765 -28.449 C 248.21 -28.362 250.231 -25.443 252.194 -25.973 C 254.009 -26.464 253.899 -29.506 256.321 -30.925 C 260.101 -33.14 268.956 -36.341 275.305 -35.878 C 281.886 -35.398 288.679 -27.668 295.115 -27.624 C 301.324 -27.581 307.342 -35.477 313.274 -35.052 C 319.314 -34.621 328.298 -27.47 331.02 -24.735 C 332.444 -23.304 331.178 -21.343 332.671 -21.021 C 335.533 -20.403 348.351 -24.942 351.655 -29.275 C 354.587 -33.119 351.678 -40.283 353.306 -44.545 C 354.772 -48.38 357.519 -51.748 360.322 -54.037 C 362.943 -56.177 366.316 -57.489 369.402 -58.164 C 372.373 -58.814 375.289 -59.022 378.481 -58.164 C 382.241 -57.153 386.931 -55.175 390.449 -51.561 C 394.719 -47.175 397.658 -40.619 401.18 -32.164 C 402.791 -28.296 404.464 -23.995 406.124 -19.279 C 411.181 -23.391 417.908 -27.017 422.574 -28.998 C 426.903 -30.836 429.5 -31.297 434.13 -31.474 C 440.023 -31.699 447.796 -30.758 455.59 -28.998 C 464.633 -26.955 477.723 -20.206 485.305 -19.093 C 490.54 -18.325 493.458 -21.122 497.686 -19.918 C 502.638 -18.508 508.771 -15.762 512.956 -9.601 C 517.636 -2.711 521.192 11.479 523.607 23.796 C 525.173 22.897 526.634 22.084 527.966 21.374 C 536.381 16.886 541.006 14.776 546.951 13.945 C 552.202 13.211 557.847 14.177 561.808 15.596 C 565.112 16.78 567.622 17.956 569.649 20.961 C 572.314 24.911 575.502 33.723 574.602 39.12 C 573.745 44.253 569.41 49.78 565.11 52.739 C 560.766 55.727 556.04 53.38 548.602 56.866 C 543.15 59.421 535.379 64.088 526.912 69.626 C 526.619 74.811 525.852 80.216 525.007 85.706 C 538.237 84.509 551.383 83.933 561.816 83.86 C 572.905 83.782 581.053 86.706 589.88 85.511 C 598.344 84.365 605.519 81.653 613.816 77.257 C 623.557 72.095 636.492 58.923 644.356 54.971 C 649.458 52.407 652.422 51.157 656.738 51.669 C 661.589 52.245 668.78 55.514 672.008 59.51 C 675.163 63.417 676.558 70.437 676.135 75.193 C 675.743 79.585 674.662 82.553 670.357 87.162 C 662.857 95.189 639.694 110.382 626.198 116.876 C 615.206 122.165 605.082 124.539 595.657 125.956 C 587.369 127.201 580.975 126.184 572.546 125.956 C 563.017 125.697 554.529 123.425 541.181 124.305 C 535.823 124.658 529.158 125.376 521.9 126.344 C 522.083 135.922 522.703 145.375 523.686 152.179 C 524.811 159.96 527.862 164.705 528.639 170.338 C 529.33 175.347 529.859 179.858 528.639 184.37 C 527.361 189.091 523.035 195.292 520.797 197.989 C 519.416 199.654 517.597 198.857 517.083 200.878 C 516.102 204.733 522.557 217.504 522.035 223.99 C 522.004 224.38 521.961 224.769 521.909 225.155 C 524.04 231.744 525.763 237.699 525.942 239.731 C 526.09 241.408 525.172 240.976 525.117 242.207 C 525.022 244.317 526.858 248.662 526.768 252.112 C 526.672 255.795 525.948 260.08 524.292 263.668 C 522.573 267.391 520.234 271.703 516.45 273.985 C 514.268 275.301 511.202 276.452 508.009 277.101 C 513.886 288.523 518.542 298.093 520.038 302.952 C 522.2 309.971 521.48 311.529 520.864 315.333 C 520.282 318.922 516.431 321.765 516.737 325.238 C 517.081 329.148 522.825 333.45 524.165 337.619 C 525.393 341.436 526.029 345.379 524.991 349.175 C 523.844 353.37 516.821 358.102 516.737 361.556 C 516.669 364.328 520.471 367.261 521.689 368.572 C 522.378 369.313 522.445 368.92 523.34 369.81 C 525.581 372.04 533.813 379.887 536.546 385.493 C 538.277 389.042 539.605 393.055 539.983 396.889 C 540.277 397.121 540.551 397.354 540.802 397.586 Z" style="stroke-width: 2px; paint-order: stroke; fill: rgb(89, 183, 63);"/>
  <path style="fill: none; stroke: black;" d="M 276.061 82.541 C 399.872 82.541 234.791 0 358.602 0" transform="matrix(0, 1.000001, -0.999999, 0, 358.601988, -276.061156)"/>
  <circle style="fill: rgb(49, 71, 27);" cx="87.11" cy="-5.018" r="14.152"/>
  <path d="M 86.309 -10.718 C 77.41 -6.7 65.111 -2.628 59.264 5.725 C 36.994 37.541 41.881 119.319 79.854 138.307 C 104.274 150.518 125.15 128.418 145.439 152.771 C 163.388 174.315 147.163 193.445 148.596 216.377 C 151.683 265.789 188.808 281.247 233.357 289.735 C 250.413 292.984 261.366 285.014 276.044 278.286 C 300.301 267.168 322.98 248.929 339.698 228.627 C 364.926 197.989 380.167 158.393 425.025 151.311 C 458.439 146.035 464.52 175.682 483.26 194.421 C 493.637 204.798 513.12 205.937 523.78 196.4 C 530.791 190.127 536.778 182.264 543.003 175.198 C 551.104 166.002 558.325 157.767 564.959 147.306 C 567.773 152.516 564.868 172.695 566.796 168.837" style="stroke-width: 2px; fill: rgb(49, 71, 27);"/>
  <path d="M 165.46350677286372 178.77871957082777 C 133.9562520188261 224.53912959855094 158.22035203832388 294.1284975722061 219.1755828857422 290.0647277832031 C 248.1532244431531 288.1328433053585 264.17241213877134 259.69979416296553 280.3319396972656 239.13320922851562" style="stroke: none; fill: rgb(49, 71, 27); stroke-width: 2px;"/>
  <path d="M 180.91749277005474 154.23174374220542 C 165.33456461278132 178.86235727049848 146.07630659563972 203.45798943771436 147.4181365966797 234.3274688720703 C 149.33573155249462 278.4427129835261 196.61635325423464 308.5709686187188 237.78636169433594 289.3580017089844 C 270.0322002066632 274.3097116602865 283.3749232967712 240.8881948858049 304.6437683105469 214.30357360839844" style="stroke: none; fill: rgb(49, 71, 27); stroke-width: 2px;"/>
  <path d="M 55.82492072980392 50.15437483008593 C 61.65697823860543 11.274650333259068 64.42952374252981 -5.790249310575643 103.83598327636719 -32.06157684326172" style="stroke: none; fill: rgb(49, 71, 27); stroke-width: 2px;"/>
  <path d="M 116.9342007416137 -58.870113571305495 C 109.41290850918278 -63.01438813094162 87.78128010749424 -42.12829196549382 84.0002212524414 -35.40674591064453 C 62.41885316774406 2.9582108564515224 47.97814867166296 23.359345161516693 57.89803695678711 72.9581069946289" style="stroke: none; fill: rgb(49, 71, 27); stroke-width: 2px;"/>
  <path d="M 53.79896090224079 43.22843966163147 C 53.15490928892883 17.145479333114256 59.25296815349582 -5.073796692579258 74.9068603515625 -26.17219352722168 C 83.375953965469 -37.586881684969654 98.18778699295143 -47.7234009066298 103.69464111328125 -60.80182647705078" style="stroke: none; fill: rgb(49, 71, 27); stroke-width: 2px;"/>
  <path d="M 152.97784197921916 136.23374322767677 C 157.15130610042684 121.78708665370002 159.73370676019442 134.95633828666288 168.3376007080078 145.5154266357422 C 170.24935140837334 147.86161368418948 175.26543909258316 157.91554101578515 175.12228393554688 157.1999969482422" style="stroke: none; fill: rgb(49, 71, 27); stroke-width: 2px;"/>
  <path d="M 72.17413869894031 113.05309258583956 C 71.43001113355564 166.64321410821108 141.13076494630627 132.74453915998424 165.2750701904297 130.0616455078125 C 175.27826639103552 128.9500992729269 185.89322276272577 130.97657520339092 195.28782653808594 134.34912109375 C 202.44561582968353 136.91867840948768 224.84105999345266 147.57983598733443 226.1487274169922 156.72885131835938" style="stroke: none; fill: rgb(49, 71, 27); stroke-width: 2px;"/>
  <path d="M 175.31073100180814 275.7417111714609 C 172.80709867209808 286.5903718323177 184.6581205437844 293.0791540619391 192.41378784179688 297.6031188964844 C 214.0270901398059 310.2103924936444 249.66157496263324 304.81276913756085 271.00299072265625 294.8233642578125 C 323.53259812604244 270.2355148654774 335.6495987920754 210.03574222716753 370.55877685546875 169.49703979492188 C 378.39087313938086 160.40192388879427 387.86962998018544 146.40067662946078 398.68701171875 140.75680541992188 C 404.8132852990225 137.5604775175614 420.80768948381433 137.91984097060032 424.4593505859375 132.18185424804688" style="stroke: none; fill: rgb(49, 71, 27); stroke-width: 2px;"/>
  <path d="M 208.48028465452356 294.4935054475497 C 204.31604395254482 299.8958459380198 193.7303561390896 290.9936537270118 187.56085205078125 289.3109130859375 C 160.27895726567147 281.8697391336555 145.6982283213301 244.8112741832926 152.97784423828125 218.119873046875" style="stroke: none; fill: rgb(49, 71, 27); stroke-width: 2px;"/>
  <path d="M 156.84129439703267 253.31487948061607 C 154.35995430495288 261.3498236710033 163.52607647259276 270.8098837374702 168.76162719726562 276.30706787109375 C 191.33124180711798 300.0045419019715 202.34048145752342 301.1299201718986 233.35745239257812 288.8868103027344" style="stroke: none; fill: rgb(49, 71, 27); stroke-width: 2px;"/>
  <path d="M 69.58275197001936 9.588229909512691 C 65.96025869353952 6.509099756665082 76.90600669322886 0.9948209708231595 80.08958435058594 -1.1540428400039673 C 92.87500368518106 -9.783995638821258 111.23265007203733 -12.493359404819964 126.12178802490234 -15.712621688842773 C 176.27427221359565 -26.55636571954692 244.03747590541357 -26.373183065802856 293.3359375 -13.12129020690918 C 355.9804170638564 3.71813854054977 425.72708985189377 29.849775862662277 471.3866882324219 78.0936508178711 C 489.5992503875036 97.33702137713638 501.56423470831095 123.32303568296881 513.366943359375 146.92889404296875 C 516.1198056930721 152.43472158264743 519.2925912145913 171.32701952816498 527.3602905273438 170.25088500976562" style="stroke: none; fill: rgb(49, 71, 27); stroke-width: 2px;"/>
  <path d="M 537.9142647127641 164.59706918625488 C 528.9550766381097 142.92154081427154 533.8247113274786 111.24829454436899 529.6218872070312 87.94071197509766 C 517.8962996374278 22.91417443284439 473.98147700223103 -23.772695696370775 409.099609375 -37.47982406616211 C 385.34044016794945 -42.49925390365882 360.18629333159157 -40.371457967823574 336.11712646484375 -43.981719970703125 C 278.1331845181714 -52.67903897414773 222.26030477921523 -68.27684238077556 163.53175354003906 -56.27877426147461 C 146.18100644276373 -52.73406830157338 85.91555102689436 -41.09162213792233 93.65895080566406 -12.697263717651367" style="stroke: none; fill: rgb(49, 71, 27); stroke-width: 2px;"/>
  <path d="M 536.1710057411701 171.94704325803775 C 550.3419698875493 143.14040198769013 546.6998636233378 114.64593457621005 541.165283203125 83.65325927734375 C 536.899560237946 59.76596218579223 531.7778315738547 34.181448544708616 519.5391235351562 12.886269569396973 C 466.5876436823276 -79.24855682797477 341.84478402876573 -68.7481015511882 253.47593688964844 -42.23844909667969" style="stroke: none; fill: rgb(49, 71, 27); stroke-width: 2px;"/>
  <path d="M 618.2 82.381 C 617.037 84.964 603.504 83.081 600.625 82.852 C 580.07 81.217 559.629 77.231 539.752 71.78 C 455.804 48.762 390.416 -4.166 333.29 -67.539 C 321.118 -56.266 278.882 -61.01 269.684 -42.615 C 258.799 -20.848 307.082 10.051 318.543 17.645 C 324.088 21.319 329.926 24.598 335.74 27.822 C 363.621 43.28 387.592 62.083 418.476 72.11 C 462.406 86.373 514.868 73.306 558.551 65.561 C 578.746 61.981 598.392 56.949 617.823 50.343 C 622.953 48.598 634.972 44.811 636.292 38.705" style="stroke: none; stroke-width: 2px; fill: rgb(230, 255, 207);"/>
  <path d="M 307.8947119940135 -50.20091540245841 C 314.4603706467452 -33.92944994142562 329.21022692168776 -72.84581886506562 346.8595275878906 -74.27676391601562 C 385.6776940102791 -77.42400834114109 431.02138104291294 -67.46801597110843 463.4241638183594 -45.86631774902344 C 493.3648090429527 -25.906032634058825 518.6885280395168 16.812688288025498 542.0133666992188 44.21785354614258 C 551.0978238933715 54.89149868119658 561.031582078993 63.53921885280034 574.8059692382812 66.8331298828125 C 577.778593899718 67.54398264505609 594.1442156389559 71.34847082072693 593.793701171875 70.4138412475586" style="stroke: none; stroke-width: 2px; fill: rgb(230, 255, 207);"/>
  <path d="M 575.088658995407 78.51767559923174 C 559.3005152524773 67.66335118339595 518.0173383850943 74.65404148916903 498.1956481933594 73.09942626953125 C 466.1022513741956 70.58234106325804 426.06473050339554 45.95888071537195 403.4927978515625 24.617944717407227 C 387.6761278316404 9.66386223795794 363.18830206584437 -17.69970065515349 381.30120849609375 -40.024044036865234 C 395.66002838269435 -57.721437160328186 413.5208999261135 -52.913409340284836 433.3642272949219 -49.91822814941406 C 472.5230213579451 -44.00754183885543 529.5835420052292 -22.187761948075227 555.8182983398438 9.02284049987793 C 573.7529612037413 30.3591024244695 572.9340311833478 62.198229582045755 589.6004028320312 81.72151947021484 C 593.9778171112223 86.84930191349233 611.8831488243609 96.71530101938258 616.9747314453125 87.9878158569336" style="stroke: none; stroke-width: 2px; fill: rgb(230, 255, 207);"/>
  <path d="M 47.76813525533069 -11.283802964724714 C 52.7749873666048 -17.73997441654121 66.90357246432988 -14.139830967569274 73.63471984863281 -11.89629077911377 C 94.55594219264961 -4.9230958034884 107.68057187183454 20.15469888623474 129.9381561279297 28.10445213317871 C 163.68362831714967 40.157340443932604 200.37992638938886 14.64607776088834 233.49879455566406 25.183334350585938 C 287.08920858373614 42.23391532234006 328.21829028019755 88.51969259154303 384.1752624511719 103.44161224365234 C 413.7734396600716 111.3344914511015 449.1077304868228 80.35652557811963 476.0982666015625 96.23297882080078 C 492.3188337944525 105.77428898644247 499.5110985891343 126.55806893248342 510.8698425292969 140.75680541992188 C 524.733806940518 158.0871351098203 545.3017612382986 169.31034950278584 565.1001586914062 178.44894409179688 C 572.1712143328141 181.7128199169093 597.1316023193051 199.08850120174495 601.7562866210938 188.29598999023438 C 606.2895761218216 177.71676456230492 598.4818488776566 159.26167066649919 595.5369873046875 148.954833984375 C 586.961521219821 118.94122342246972 581.3552050568512 89.55727722830933 568.6809692382812 60.66102600097656 C 555.4639888344187 30.527360217579734 538.9311998970345 -24.958432521685207 510.49285888671875 -44.97112274169922 C 472.4739639531026 -71.72586087982498 422.9927394789864 -56.083728036157666 380.971435546875 -53.02782440185547 C 331.3685900731472 -49.4205704242115 278.5034541075317 -54.7834074485564 229.49395751953125 -62.16816329956055 C 176.81343315126477 -70.10606998391064 111.29573020091246 -79.12142993904789 63.363460540771484 -49.16438293457031 C 54.80402367941423 -43.81484588561299 32.724770720458906 -33.38681349898611 29.25159454345703 -22.96836280822754 C 22.22035180039506 -1.8768166038020055 70.31275575435619 -16.73132675225747 74.4356918334961 -18.586641311645508" style="stroke: none; stroke-width: 2px; fill: rgb(230, 255, 207);"/>
  <path d="M 364.4808790679955 205.02185101276376 C 350.98035092814774 219.51005680901872 321.96395410081396 237.2472851185974 318.6842346191406 258.0263977050781 C 314.8150068669009 282.5404207902185 331.23008402291003 296.67698117968104 345.5403137207031 314.5645751953125 C 386.7453903148462 366.0703649041036 446.71768737554135 380.48865382895053 508.1370849609375 393.4825134277344" style="stroke: none; fill: rgb(89, 183, 63); stroke-width: 2px; paint-order: stroke;"/>
  <path d="M 476.192579532076 202.3834091159934 C 460.7015710780694 193.14343218695115 463.2997008884263 162.13434268177647 440.2902526855469 157.52976989746094 C 398.66802318957014 149.2004704084047 368.1679161526408 190.30554474426037 339.60369873046875 212.74876403808594 C 324.15152587934637 224.8897059283632 304.0655910255722 240.98648636844135 305.1620178222656 262.9263916015625 C 306.7841761146568 295.3863782741944 342.6751370234587 305.67424506589253 363.0674133300781 323.7991638183594 C 409.1295381804592 364.7397757405379 437.98037615760217 433.1030331960994 510.7284240722656 430.3736267089844 C 530.5925721660046 429.62835125181107 548.879575611066 425.9137436800198 568.0213012695312 420.80926513671875" style="stroke: none; fill: rgb(89, 183, 63); stroke-width: 2px; paint-order: stroke;"/>
  <path d="M 323.86702067794397 240.07551537949985 C 288.3215533338513 263.966564730516 342.85053596698185 300.1254680002808 344.2210388183594 323.4222412109375 C 346.6923092694554 365.43063775204257 350.00443591199263 406.35998405374863 383.28009033203125 437.488037109375 C 427.4051153147882 478.76524540725177 513.1139246794944 445.17394573833286 546.6307373046875 404.60162353515625" style="stroke: none; fill: rgb(89, 183, 63); stroke-width: 2px; paint-order: stroke;"/>
  <rect x="-29.596" y="-83.606" width="692.839" height="84.053" style="fill: rgb(216, 216, 216);"/>
</svg>